<?xml version="1.0" encoding="utf-8"?>
<svg version="1.1" id="Layer_1" xmlns="http://www.w3.org/2000/svg" xmlns:xlink="http://www.w3.org/1999/xlink" x="0px" y="0px"
	 viewBox="0 0 60 60" style="enable-background:new 0 0 60 60;" xml:space="preserve">
<style type="text/css">
	.st0{fill:#A4B942;}
	.st1{fill:#FFFFFF;}
</style>
<path class="st0" d="M55.29,60H4.71C2.11,60,0,57.89,0,55.29V4.71C0,2.11,2.11,0,4.71,0h50.58C57.89,0,60,2.11,60,4.71v50.58
	C60,57.89,57.89,60,55.29,60z"/>
<g>
	<g>
		<path class="st1" d="M32.04,21.05c-0.05-0.12-0.11-0.23-0.17-0.34c-1.32-2.35-3.19-4.17-5.61-5.46s-5.23-1.93-8.44-1.93
			c-3.2,0-6.02,0.64-8.44,1.93c-2.43,1.29-4.29,3.11-5.61,5.46c-1.32,2.35-1.98,5.09-1.98,8.21c0,3.12,0.66,5.85,1.98,8.2
			c1.32,2.35,3.19,4.17,5.61,5.46c2.42,1.3,5.23,1.94,8.44,1.94c3.2,0,6.01-0.64,8.44-1.94c2.43-1.29,4.29-3.11,5.61-5.46
			c0.04-0.06,0.07-0.13,0.1-0.2c-1.24-2.29-1.86-4.92-1.86-7.89C30.11,26.03,30.75,23.38,32.04,21.05z M25.74,33.84
			c-0.75,1.42-1.81,2.51-3.19,3.29c-1.38,0.78-2.96,1.17-4.74,1.17c-1.79,0-3.36-0.39-4.72-1.17c-1.36-0.78-2.41-1.88-3.16-3.29
			c-0.75-1.42-1.12-3.06-1.12-4.93c0-1.88,0.37-3.51,1.12-4.94c0.76-1.42,1.8-2.51,3.16-3.29c1.37-0.78,2.93-1.17,4.72-1.17
			c1.78,0,3.36,0.39,4.74,1.17c1.38,0.78,2.44,1.88,3.19,3.29c0.75,1.42,1.13,3.06,1.13,4.94C26.87,30.78,26.49,32.42,25.74,33.84z"
			/>
	</g>
	<g>
		<path class="st1" d="M45.22,13.46c-0.74,0-1.46,0.04-2.17,0.11c-1.22,0.18-2.34,0.49-3.37,0.92c-0.27,0.11-0.52,0.23-0.77,0.36
			c1.52-0.66,3.16-1.09,4.94-1.28c0.6-0.06,1.22-0.1,1.85-0.1C45.53,13.46,45.37,13.46,45.22,13.46z M41.02,21.09
			c-0.06,0.09-0.11,0.18-0.16,0.29C40.91,21.28,40.96,21.19,41.02,21.09L41.02,21.09z M40.66,22.1c-0.01,0.08-0.01,0.17-0.01,0.25
			c0-0.17,0.02-0.34,0.05-0.5C40.68,21.94,40.67,22.02,40.66,22.1z"/>
	</g>
	<g>
		<path class="st1" d="M41.88,20.27c-0.02,0.02-0.05,0.03-0.07,0.06c0.05-0.04,0.1-0.07,0.14-0.1
			C41.92,20.24,41.9,20.26,41.88,20.27z"/>
		<path class="st1" d="M55.49,28.67c-1.98-1.54-4.99-2.54-9.01-3c-2.1-0.25-3.59-0.64-4.48-1.14c-0.67-0.38-1.09-0.88-1.26-1.51
			c-0.02-0.04-0.02-0.08-0.03-0.12c-0.02-0.06-0.02-0.14-0.03-0.2c-0.03-0.21-0.04-0.41-0.02-0.6c0.01-0.09,0.02-0.17,0.04-0.25
			c-0.01-0.01,0-0.02,0-0.02c0.02-0.07,0.04-0.15,0.06-0.21c0-0.02,0.01-0.04,0.02-0.05c0.02-0.07,0.05-0.13,0.08-0.19
			c0.05-0.1,0.1-0.2,0.16-0.29h0.01c0.16-0.25,0.38-0.48,0.64-0.67c0.05-0.03,0.1-0.06,0.14-0.1c0.02-0.02,0.05-0.04,0.07-0.06
			c0.02-0.02,0.05-0.03,0.07-0.04c1.2-0.73,3.07-0.96,4.93-0.56c0.04,0.01,0.08,0.02,0.12,0.03c0.01-0.01,0.01,0,0.02,0
			c2.08,0.5,5.76,2.55,6,2.68l0.01,0.01l1.17-1.17l2.8-2.8l0.33-0.33l-0.06-0.06c-3.13-3.05-6.89-4.57-11.24-4.57
			c-0.1,0-0.21,0-0.32,0.01c-0.63,0.01-1.25,0.04-1.85,0.1c-1.77,0.19-3.42,0.62-4.94,1.28c-0.39,0.17-0.77,0.35-1.14,0.55
			c-2.4,1.29-4.29,3.12-5.63,5.48c-0.03,0.06-0.06,0.11-0.09,0.17c-1.29,2.33-1.93,4.99-1.93,7.97c0,2.97,0.62,5.6,1.86,7.89
			c0.03,0.08,0.08,0.16,0.12,0.23c0.45,0.82,0.98,1.57,1.57,2.26c0.14,0.17,0.29,0.33,0.44,0.49c0.95,1.01,2.07,1.88,3.33,2.58
			c0.09,0.06,0.17,0.11,0.26,0.16c1.04,0.56,2.16,1,3.35,1.31c1.58,0.35,3.21,0.52,4.88,0.52c0.91,0,1.79-0.06,2.62-0.17
			c0.02,0.01,0.05,0,0.07-0.01c1.39-0.17,2.68-0.51,3.86-0.99c1.87-0.77,3.34-1.86,4.39-3.27c0.01-0.02,0.02-0.03,0.03-0.05
			c0.01-0.02,0.02-0.03,0.03-0.05c0.12-0.17,0.23-0.33,0.33-0.51c0.8-1.3,1.21-2.76,1.21-4.4C58.47,32.34,57.48,30.22,55.49,28.67z
			 M50.47,37.15c-0.12,0.09-0.25,0.17-0.4,0.25c-0.81,0.46-1.83,0.75-3.08,0.84c-0.02,0.01-0.03,0.01-0.05,0.01
			c-0.33,0.02-0.69,0.04-1.07,0.04c-0.47,0-0.93-0.02-1.38-0.06c-0.01,0-0.02,0-0.03-0.01c-0.52-0.08-1.03-0.2-1.52-0.37
			c-0.52-0.17-1.03-0.4-1.51-0.67c-1.38-0.78-2.44-1.88-3.19-3.29c-0.76-1.41-1.13-3.03-1.13-4.87c1.89,1.27,4.71,2.11,8.47,2.54
			c2.09,0.23,3.63,0.61,4.59,1.15c0.96,0.54,1.45,1.29,1.45,2.25C51.62,35.86,51.24,36.58,50.47,37.15z"/>
	</g>
	<path class="st1" d="M41.95,20.24c-0.05,0.02-0.1,0.06-0.14,0.1c0.02-0.02,0.05-0.04,0.07-0.06C41.9,20.26,41.92,20.24,41.95,20.24
		z"/>
</g>
</svg>
